<svg xmlns="http://www.w3.org/2000/svg" width="960" height="720" viewBox="0 0 960 720" role="img" aria-labelledby="title desc">
  <title id="title">Playtest Studio With Presets And Replay card artwork</title>
  <desc id="desc">Generated portfolio card image for Playtest Studio With Presets And Replay.</desc>
  <defs>
    <linearGradient id="bg" x1="0" y1="0" x2="1" y2="1">
      <stop offset="0" stop-color="#101827"/>
      <stop offset="0.58" stop-color="#06b6d4"/>
      <stop offset="1" stop-color="#facc15"/>
    </linearGradient>
    <radialGradient id="glow" cx="72%" cy="38%" r="52%">
      <stop offset="0" stop-color="#facc15" stop-opacity="0.52"/>
      <stop offset="1" stop-color="#facc15" stop-opacity="0"/>
    </radialGradient>
    <pattern id="grid" width="64" height="64" patternUnits="userSpaceOnUse">
      <path d="M64 0H0v64" fill="none" stroke="rgba(255,255,255,0.08)" stroke-width="1"/>
    </pattern>
    <filter id="shadow" x="-20%" y="-20%" width="140%" height="140%">
      <feDropShadow dx="0" dy="26" stdDeviation="20" flood-color="#000" flood-opacity="0.35"/>
    </filter>
  </defs>
  <rect width="960" height="720" fill="url(#bg)"/>
  <rect width="960" height="720" fill="url(#grid)" opacity="0.7"/>
  <rect width="960" height="720" fill="url(#glow)"/>
  <path d="M0 576c154-52 256-42 392 12 158 62 306 62 568-20v152H0z" fill="rgba(0,0,0,0.25)"/>
  <g transform="translate(250 126)" opacity="0.26" filter="url(#shadow)">
    <path d="M280 300h400v280H280zM340 360h280v52H340zM340 452h168v52H340z" fill="#ecfeff"/>
  </g>
  <rect x="48" y="48" width="864" height="624" rx="28" fill="rgba(8,12,24,0.30)" stroke="rgba(255,255,255,0.22)"/>
  <text x="72" y="88" fill="#ecfeff" opacity="0.72" font-size="19" letter-spacing="3" font-family="Inter, Arial, sans-serif">PROTOTYPES</text>
  <text x="72" y="132" fill="#ecfeff" font-size="48" font-weight="760" font-family="Inter, Arial, sans-serif">Playtest Studio With Presets</text><text x="72" y="194" fill="#ecfeff" font-size="48" font-weight="760" font-family="Inter, Arial, sans-serif">And Replay</text>
  <text x="72" y="576" fill="#ecfeff" opacity="0.74" font-size="22" font-family="Inter, Arial, sans-serif">Prototype</text>
  <g><rect x="72" y="664" width="248" height="34" rx="17" fill="rgba(255,255,255,0.12)" stroke="rgba(255,255,255,0.18)"/><text x="90" y="687" fill="#ecfeff" opacity="0.86" font-size="17" font-family="Inter, Arial, sans-serif">Prototype</text></g><g><rect x="362" y="664" width="248" height="34" rx="17" fill="rgba(255,255,255,0.12)" stroke="rgba(255,255,255,0.18)"/><text x="380" y="687" fill="#ecfeff" opacity="0.86" font-size="17" font-family="Inter, Arial, sans-serif">JavaScript</text></g><g><rect x="72" y="718" width="248" height="34" rx="17" fill="rgba(255,255,255,0.12)" stroke="rgba(255,255,255,0.18)"/><text x="90" y="741" fill="#ecfeff" opacity="0.86" font-size="17" font-family="Inter, Arial, sans-serif">HTML</text></g><g><rect x="362" y="718" width="248" height="34" rx="17" fill="rgba(255,255,255,0.12)" stroke="rgba(255,255,255,0.18)"/><text x="380" y="741" fill="#ecfeff" opacity="0.86" font-size="17" font-family="Inter, Arial, sans-serif">Prototype</text></g>
</svg>
